<?xml version="1.0" encoding="UTF-8"?><svg id="uuid-3c08b57e-31d6-4998-8b18-4f3a600de412" xmlns="http://www.w3.org/2000/svg" viewBox="0 0 85 99.19"><g id="uuid-940dd8d5-e93d-4dbc-aac5-92151815cc07"><path d="m64.75,54.83c-.35,1.39-.65,2.52-.93,3.65-3.42,13.73-16.26,20.28-29.33,14.9-6.21-2.56-9.82-7.27-10.19-13.97-.36-6.59,2.87-11.45,8.58-14.59,5.31-2.92,11.14-3.26,17.04-3,1.92.08,3.84.29,5.99.46-.63-4.76-2.58-8.31-6.97-9.75-6.31-2.08-12.04-.99-16.68,4.3-2.25-1.52-4.39-2.96-6.5-4.38,3.25-6.55,11.77-10.48,20.25-9.47,10.73,1.28,17.01,7.7,18.66,18.76.23,1.52,1.26,3.58,2.5,4.2,17.09,8.5,18.63,31.53,2.75,44.15C44.98,109.91,7.55,95.65,1.48,63.87-.82,51.81-.58,39.77,3.19,28.04,8.56,11.36,20.22,1.96,37.61.32c14.86-1.4,28.51,1.58,38.79,13.61,4.19,4.9,7,10.53,8.6,17.12-2.77.72-5.34,1.4-8.05,2.11-.73-1.93-1.27-3.51-1.92-5.05-6.1-14.34-20.24-21.61-37.16-19.14-15.15,2.22-23.57,9.8-27.38,24.81-2.54,10-2.52,20.1-.22,30.11,4.56,19.83,18.77,27.12,37.76,25.61,8.37-.67,15.67-3.72,20.83-10.66,6.1-8.2,4.44-18.39-4.1-24.02Zm-9.02-3.57c-5.68-.93-11.42-1.44-17.07.42-3.43,1.13-5.93,3.4-5.77,7.34.14,3.75,2.65,5.66,6,6.72,9.7,3.09,17.88-3.75,16.85-14.48Z"/></g></svg>