<svg width="65" height="16" viewBox="0 0 65 16" fill="#F4F2F3" xmlns="http://www.w3.org/2000/svg">
<path d="M15.2857 0.571429H15.9286V1.21429H15.2857V0.571429ZM14.6429 0.571429H15.2857V1.21429H14.6429V0.571429ZM14.6429 1.21429H15.2857V1.85714H14.6429V1.21429ZM15.2857 1.21429H15.9286V1.85714H15.2857V1.21429ZM15.9286 1.21429H16.5714V1.85714H15.9286V1.21429ZM15.9286 0.571429H16.5714V1.21429H15.9286V0.571429ZM16.5714 0.571429H17.2143V1.21429H16.5714V0.571429ZM17.2143 0.571429H17.8571V1.21429H17.2143V0.571429ZM17.2143 1.21429H17.8571V1.85714H17.2143V1.21429ZM16.5714 1.21429H17.2143V1.85714H16.5714V1.21429ZM16.5714 1.85714H17.2143V2.5H16.5714V1.85714ZM17.2143 1.85714H17.8571V2.5H17.2143V1.85714ZM17.8571 1.21429H18.5V1.85714H17.8571V1.21429ZM17.8571 1.85714H18.5V2.5H17.8571V1.85714ZM17.8571 2.5H18.5V3.14286H17.8571V2.5ZM17.8571 3.14286H18.5V3.78571H17.8571V3.14286ZM17.8571 3.78571H18.5V4.42857H17.8571V3.78571ZM17.8571 4.42857H18.5V5.07143H17.8571V4.42857ZM17.8571 5.07143H18.5V5.71429H17.8571V5.07143ZM17.8571 5.71429H18.5V6.35714H17.8571V5.71429ZM17.2143 5.71429H17.8571V6.35714H17.2143V5.71429ZM17.2143 5.07143H17.8571V5.71429H17.2143V5.07143ZM17.2143 4.42857H17.8571V5.07143H17.2143V4.42857ZM17.2143 3.78571H17.8571V4.42857H17.2143V3.78571ZM17.2143 3.14286H17.8571V3.78571H17.2143V3.14286ZM17.2143 2.5H17.8571V3.14286H17.2143V2.5ZM16.5714 5.07143H17.2143V5.71429H16.5714V5.07143ZM16.5714 5.71429H17.2143V6.35714H16.5714V5.71429ZM17.2143 6.35714H17.8571V7H17.2143V6.35714ZM16.5714 6.35714H17.2143V7H16.5714V6.35714ZM15.9286 6.35714H16.5714V7H15.9286V6.35714ZM15.9286 5.71429H16.5714V6.35714H15.9286V5.71429ZM15.2857 6.35714H15.9286V7H15.2857V6.35714ZM14.6429 6.35714H15.2857V7H14.6429V6.35714ZM14.6429 5.71429H15.2857V6.35714H14.6429V5.71429ZM15.2857 5.71429H15.9286V6.35714H15.2857V5.71429ZM14.6429 5.07143H15.2857V5.71429H14.6429V5.07143ZM14 5.71429H14.6429V6.35714H14V5.71429ZM14 5.07143H14.6429V5.71429H14V5.07143ZM14 4.42857H14.6429V5.07143H14V4.42857ZM14 3.78571H14.6429V4.42857H14V3.78571ZM14 3.14286H14.6429V3.78571H14V3.14286ZM14 2.5H14.6429V3.14286H14V2.5ZM14 1.85714H14.6429V2.5H14V1.85714ZM14.6429 1.85714H15.2857V2.5H14.6429V1.85714ZM14 1.21429H14.6429V1.85714H14V1.21429ZM14.6429 2.5H15.2857V3.14286H14.6429V2.5ZM14.6429 3.14286H15.2857V3.78571H14.6429V3.14286ZM14.6429 3.78571H15.2857V4.42857H14.6429V3.78571ZM14.6429 4.42857H15.2857V5.07143H14.6429V4.42857ZM14 6.35714H14.6429V7H14V6.35714ZM14 0.571429H14.6429V1.21429H14V0.571429ZM20.1902 1.85714H20.8331V2.5H20.1902V1.85714ZM19.5474 1.85714H20.1902V2.5H19.5474V1.85714ZM19.5474 2.5H20.1902V3.14286H19.5474V2.5ZM20.1902 2.5H20.8331V3.14286H20.1902V2.5ZM20.8331 1.85714H21.476V2.5H20.8331V1.85714ZM21.476 1.85714H22.1188V2.5H21.476V1.85714ZM22.1188 1.85714H22.7617V2.5H22.1188V1.85714ZM22.1188 2.5H22.7617V3.14286H22.1188V2.5ZM21.476 2.5H22.1188V3.14286H21.476V2.5ZM22.7617 2.5H23.4045V3.14286H22.7617V2.5ZM22.7617 3.14286H23.4045V3.78571H22.7617V3.14286ZM22.7617 5.71429H23.4045V6.35714H22.7617V5.71429ZM22.1188 5.71429H22.7617V6.35714H22.1188V5.71429ZM22.1188 3.14286H22.7617V3.78571H22.1188V3.14286ZM21.476 5.71429H22.1188V6.35714H21.476V5.71429ZM22.1188 6.35714H22.7617V7H22.1188V6.35714ZM21.476 6.35714H22.1188V7H21.476V6.35714ZM20.8331 6.35714H21.476V7H20.8331V6.35714ZM20.1902 6.35714H20.8331V7H20.1902V6.35714ZM19.5474 6.35714H20.1902V7H19.5474V6.35714ZM19.5474 5.71429H20.1902V6.35714H19.5474V5.71429ZM20.1902 5.71429H20.8331V6.35714H20.1902V5.71429ZM19.5474 5.07143H20.1902V5.71429H19.5474V5.07143ZM18.9045 5.71429H19.5474V6.35714H18.9045V5.71429ZM18.9045 5.07143H19.5474V5.71429H18.9045V5.07143ZM18.9045 4.42857H19.5474V5.07143H18.9045V4.42857ZM18.9045 3.78571H19.5474V4.42857H18.9045V3.78571ZM18.9045 3.14286H19.5474V3.78571H18.9045V3.14286ZM18.9045 2.5H19.5474V3.14286H18.9045V2.5ZM19.5474 3.14286H20.1902V3.78571H19.5474V3.14286ZM19.5474 3.78571H20.1902V4.42857H19.5474V3.78571ZM19.5474 4.42857H20.1902V5.07143H19.5474V4.42857ZM20.8331 5.71429H21.476V6.35714H20.8331V5.71429ZM20.8331 2.5H21.476V3.14286H20.8331V2.5ZM22.1188 3.78571H22.7617V4.42857H22.1188V3.78571ZM22.7617 3.78571H23.4045V4.42857H22.7617V3.78571ZM20.1902 4.42857H20.8331V5.07143H20.1902V4.42857ZM20.8331 4.42857H21.476V5.07143H20.8331V4.42857ZM21.476 4.42857H22.1188V5.07143H21.476V4.42857ZM22.1188 4.42857H22.7617V5.07143H22.1188V4.42857ZM22.7617 4.42857H23.4045V5.07143H22.7617V4.42857ZM21.476 3.78571H22.1188V4.42857H21.476V3.78571ZM20.8331 3.78571H21.476V4.42857H20.8331V3.78571ZM20.1902 3.78571H20.8331V4.42857H20.1902V3.78571ZM23.8091 1.85714H24.4519V2.5H23.8091V1.85714ZM24.4519 1.85714H25.0948V2.5H24.4519V1.85714ZM24.4519 2.5H25.0948V3.14286H24.4519V2.5ZM24.4519 3.14286H25.0948V3.78571H24.4519V3.14286ZM24.4519 3.78571H25.0948V4.42857H24.4519V3.78571ZM24.4519 4.42857H25.0948V5.07143H24.4519V4.42857ZM23.8091 4.42857H24.4519V5.07143H23.8091V4.42857ZM23.8091 3.78571H24.4519V4.42857H23.8091V3.78571ZM23.8091 3.14286H24.4519V3.78571H23.8091V3.14286ZM23.8091 2.5H24.4519V3.14286H23.8091V2.5ZM24.4519 5.07143H25.0948V5.71429H24.4519V5.07143ZM25.0948 5.07143H25.7376V5.71429H25.0948V5.07143ZM25.0948 5.71429H25.7376V6.35714H25.0948V5.71429ZM25.7376 5.71429H26.3805V6.35714H25.7376V5.71429ZM25.7376 6.35714H26.3805V7H25.7376V6.35714ZM26.3805 5.71429H27.0233V6.35714H26.3805V5.71429ZM26.3805 5.07143H27.0233V5.71429H26.3805V5.07143ZM27.0233 5.07143H27.6662V5.71429H27.0233V5.07143ZM27.0233 4.42857H27.6662V5.07143H27.0233V4.42857ZM27.0233 3.78571H27.6662V4.42857H27.0233V3.78571ZM27.0233 3.14286H27.6662V3.78571H27.0233V3.14286ZM27.0233 2.5H27.6662V3.14286H27.0233V2.5ZM27.0233 1.85714H27.6662V2.5H27.0233V1.85714ZM27.6662 3.78571H28.3091V4.42857H27.6662V3.78571ZM27.6662 4.42857H28.3091V5.07143H27.6662V4.42857ZM27.6662 3.14286H28.3091V3.78571H27.6662V3.14286ZM27.6662 2.5H28.3091V3.14286H27.6662V2.5ZM27.6662 1.85714H28.3091V2.5H27.6662V1.85714ZM25.7376 5.07143H26.3805V5.71429H25.7376V5.07143ZM25.0948 4.42857H25.7376V5.07143H25.0948V4.42857ZM26.3805 4.42857H27.0233V5.07143H26.3805V4.42857ZM29.9993 1.85714H30.6422V2.5H29.9993V1.85714ZM29.3565 1.85714H29.9993V2.5H29.3565V1.85714ZM29.3565 2.5H29.9993V3.14286H29.3565V2.5ZM29.9993 2.5H30.6422V3.14286H29.9993V2.5ZM30.6422 1.85714H31.285V2.5H30.6422V1.85714ZM31.285 1.85714H31.9279V2.5H31.285V1.85714ZM31.9279 1.85714H32.5707V2.5H31.9279V1.85714ZM31.9279 2.5H32.5707V3.14286H31.9279V2.5ZM31.285 2.5H31.9279V3.14286H31.285V2.5ZM32.5707 2.5H33.2136V3.14286H32.5707V2.5ZM32.5707 3.14286H33.2136V3.78571H32.5707V3.14286ZM32.5707 5.71429H33.2136V6.35714H32.5707V5.71429ZM31.9279 5.71429H32.5707V6.35714H31.9279V5.71429ZM31.9279 3.14286H32.5707V3.78571H31.9279V3.14286ZM31.285 5.71429H31.9279V6.35714H31.285V5.71429ZM31.9279 6.35714H32.5707V7H31.9279V6.35714ZM31.285 6.35714H31.9279V7H31.285V6.35714ZM30.6422 6.35714H31.285V7H30.6422V6.35714ZM29.9993 6.35714H30.6422V7H29.9993V6.35714ZM29.3565 6.35714H29.9993V7H29.3565V6.35714ZM29.3565 5.71429H29.9993V6.35714H29.3565V5.71429ZM29.9993 5.71429H30.6422V6.35714H29.9993V5.71429ZM29.3565 5.07143H29.9993V5.71429H29.3565V5.07143ZM28.7136 5.71429H29.3565V6.35714H28.7136V5.71429ZM28.7136 5.07143H29.3565V5.71429H28.7136V5.07143ZM28.7136 4.42857H29.3565V5.07143H28.7136V4.42857ZM28.7136 3.78571H29.3565V4.42857H28.7136V3.78571ZM28.7136 3.14286H29.3565V3.78571H28.7136V3.14286ZM28.7136 2.5H29.3565V3.14286H28.7136V2.5ZM29.3565 3.14286H29.9993V3.78571H29.3565V3.14286ZM29.3565 3.78571H29.9993V4.42857H29.3565V3.78571ZM29.3565 4.42857H29.9993V5.07143H29.3565V4.42857ZM30.6422 5.71429H31.285V6.35714H30.6422V5.71429ZM30.6422 2.5H31.285V3.14286H30.6422V2.5ZM31.9279 3.78571H32.5707V4.42857H31.9279V3.78571ZM32.5707 3.78571H33.2136V4.42857H32.5707V3.78571ZM29.9993 4.42857H30.6422V5.07143H29.9993V4.42857ZM30.6422 4.42857H31.285V5.07143H30.6422V4.42857ZM31.285 4.42857H31.9279V5.07143H31.285V4.42857ZM31.9279 4.42857H32.5707V5.07143H31.9279V4.42857ZM32.5707 4.42857H33.2136V5.07143H32.5707V4.42857ZM31.285 3.78571H31.9279V4.42857H31.285V3.78571ZM30.6422 3.78571H31.285V4.42857H30.6422V3.78571ZM29.9993 3.78571H30.6422V4.42857H29.9993V3.78571ZM33.6181 0.571429H34.261V1.21429H33.6181V0.571429ZM34.261 0.571429H34.9038V1.21429H34.261V0.571429ZM34.261 1.21429H34.9038V1.85714H34.261V1.21429ZM34.261 1.85714H34.9038V2.5H34.261V1.85714ZM34.261 2.5H34.9038V3.14286H34.261V2.5ZM34.261 3.14286H34.9038V3.78571H34.261V3.14286ZM34.261 3.78571H34.9038V4.42857H34.261V3.78571ZM33.6181 3.78571H34.261V4.42857H33.6181V3.78571ZM33.6181 4.42857H34.261V5.07143H33.6181V4.42857ZM33.6181 5.07143H34.261V5.71429H33.6181V5.07143ZM33.6181 5.71429H34.261V6.35714H33.6181V5.71429ZM33.6181 6.35714H34.261V7H33.6181V6.35714ZM34.261 6.35714H34.9038V7H34.261V6.35714ZM34.261 5.71429H34.9038V6.35714H34.261V5.71429ZM34.261 5.07143H34.9038V5.71429H34.261V5.07143ZM34.261 4.42857H34.9038V5.07143H34.261V4.42857ZM33.6181 3.14286H34.261V3.78571H33.6181V3.14286ZM33.6181 2.5H34.261V3.14286H33.6181V2.5ZM33.6181 1.85714H34.261V2.5H33.6181V1.85714ZM33.6181 1.21429H34.261V1.85714H33.6181V1.21429ZM36.5974 1.85714H37.2403V2.5H36.5974V1.85714ZM35.9546 1.85714H36.5974V2.5H35.9546V1.85714ZM35.9546 2.5H36.5974V3.14286H35.9546V2.5ZM36.5974 2.5H37.2403V3.14286H36.5974V2.5ZM37.2403 1.85714H37.8831V2.5H37.2403V1.85714ZM37.8831 1.85714H38.526V2.5H37.8831V1.85714ZM38.526 1.85714H39.1689V2.5H38.526V1.85714ZM38.526 2.5H39.1689V3.14286H38.526V2.5ZM37.8831 2.5H38.526V3.14286H37.8831V2.5ZM38.526 3.78571H39.1689V4.42857H38.526V3.78571ZM39.1689 2.5H39.8117V3.14286H39.1689V2.5ZM39.1689 3.14286H39.8117V3.78571H39.1689V3.14286ZM39.1689 3.78571H39.8117V4.42857H39.1689V3.78571ZM39.1689 4.42857H39.8117V5.07143H39.1689V4.42857ZM39.1689 5.07143H39.8117V5.71429H39.1689V5.07143ZM39.1689 5.71429H39.8117V6.35714H39.1689V5.71429ZM38.526 5.71429H39.1689V6.35714H38.526V5.71429ZM38.526 5.07143H39.1689V5.71429H38.526V5.07143ZM38.526 4.42857H39.1689V5.07143H38.526V4.42857ZM38.526 3.14286H39.1689V3.78571H38.526V3.14286ZM37.8831 5.71429H38.526V6.35714H37.8831V5.71429ZM38.526 6.35714H39.1689V7H38.526V6.35714ZM37.8831 6.35714H38.526V7H37.8831V6.35714ZM37.2403 6.35714H37.8831V7H37.2403V6.35714ZM36.5974 6.35714H37.2403V7H36.5974V6.35714ZM35.9546 6.35714H36.5974V7H35.9546V6.35714ZM35.9546 5.71429H36.5974V6.35714H35.9546V5.71429ZM36.5974 5.71429H37.2403V6.35714H36.5974V5.71429ZM35.9546 5.07143H36.5974V5.71429H35.9546V5.07143ZM35.3117 5.71429H35.9546V6.35714H35.3117V5.71429ZM35.3117 5.07143H35.9546V5.71429H35.3117V5.07143ZM35.3117 4.42857H35.9546V5.07143H35.3117V4.42857ZM35.3117 3.78571H35.9546V4.42857H35.3117V3.78571ZM35.3117 3.14286H35.9546V3.78571H35.3117V3.14286ZM35.3117 2.5H35.9546V3.14286H35.3117V2.5ZM35.9546 3.14286H36.5974V3.78571H35.9546V3.14286ZM35.9546 3.78571H36.5974V4.42857H35.9546V3.78571ZM35.9546 4.42857H36.5974V5.07143H35.9546V4.42857ZM37.2403 5.71429H37.8831V6.35714H37.2403V5.71429ZM37.2403 2.5H37.8831V3.14286H37.2403V2.5ZM40.2162 2.5H40.8591V3.14286H40.2162V2.5ZM40.2162 1.85714H40.8591V2.5H40.2162V1.85714ZM40.8591 1.85714H41.502V2.5H40.8591V1.85714ZM40.8591 2.5H41.502V3.14286H40.8591V2.5ZM40.8591 3.14286H41.502V3.78571H40.8591V3.14286ZM40.8591 3.78571H41.502V4.42857H40.8591V3.78571ZM40.8591 4.42857H41.502V5.07143H40.8591V4.42857ZM40.2162 4.42857H40.8591V5.07143H40.2162V4.42857ZM40.2162 3.78571H40.8591V4.42857H40.2162V3.78571ZM40.2162 3.14286H40.8591V3.78571H40.2162V3.14286ZM40.2162 5.07143H40.8591V5.71429H40.2162V5.07143ZM40.8591 5.07143H41.502V5.71429H40.8591V5.07143ZM40.8591 5.71429H41.502V6.35714H40.8591V5.71429ZM40.8591 6.35714H41.502V7H40.8591V6.35714ZM40.2162 6.35714H40.8591V7H40.2162V6.35714ZM40.2162 5.71429H40.8591V6.35714H40.2162V5.71429ZM43.4305 6.35714H44.0734V7H43.4305V6.35714ZM44.0734 5.71429H44.7162V6.35714H44.0734V5.71429ZM44.0734 5.07143H44.7162V5.71429H44.0734V5.07143ZM44.0734 4.42857H44.7162V5.07143H44.0734V4.42857ZM44.0734 3.78571H44.7162V4.42857H44.0734V3.78571ZM44.0734 3.14286H44.7162V3.78571H44.0734V3.14286ZM44.0734 2.5H44.7162V3.14286H44.0734V2.5ZM43.4305 3.78571H44.0734V4.42857H43.4305V3.78571ZM43.4305 4.42857H44.0734V5.07143H43.4305V4.42857ZM43.4305 5.07143H44.0734V5.71429H43.4305V5.07143ZM43.4305 5.71429H44.0734V6.35714H43.4305V5.71429ZM43.4305 3.14286H44.0734V3.78571H43.4305V3.14286ZM41.502 2.5H42.1448V3.14286H41.502V2.5ZM42.1448 2.5H42.7877V3.14286H42.1448V2.5ZM42.7877 2.5H43.4305V3.14286H42.7877V2.5ZM42.7877 1.85714H43.4305V2.5H42.7877V1.85714ZM43.4305 1.85714H44.0734V2.5H43.4305V1.85714ZM43.4305 2.5H44.0734V3.14286H43.4305V2.5ZM42.1448 1.85714H42.7877V2.5H42.1448V1.85714ZM41.502 6.35714H42.1448V7H41.502V6.35714ZM42.1448 6.35714H42.7877V7H42.1448V6.35714ZM42.7877 6.35714H43.4305V7H42.7877V6.35714ZM42.7877 5.71429H43.4305V6.35714H42.7877V5.71429ZM42.1448 5.71429H42.7877V6.35714H42.1448V5.71429ZM41.502 5.71429H42.1448V6.35714H41.502V5.71429ZM40.2162 7H40.8591V7.64286H40.2162V7ZM40.8591 7H41.502V7.64286H40.8591V7ZM40.8591 7.64286H41.502V8.28571H40.8591V7.64286ZM40.2162 7.64286H40.8591V8.28571H40.2162V7.64286ZM46.4065 1.85714H47.0494V2.5H46.4065V1.85714ZM45.7636 1.85714H46.4065V2.5H45.7636V1.85714ZM45.7636 2.5H46.4065V3.14286H45.7636V2.5ZM46.4065 2.5H47.0494V3.14286H46.4065V2.5ZM47.0494 1.85714H47.6922V2.5H47.0494V1.85714ZM47.6922 1.85714H48.3351V2.5H47.6922V1.85714ZM48.3351 1.85714H48.9779V2.5H48.3351V1.85714ZM48.3351 2.5H48.9779V3.14286H48.3351V2.5ZM47.6922 2.5H48.3351V3.14286H47.6922V2.5ZM48.9779 2.5H49.6208V3.14286H48.9779V2.5ZM48.9779 3.14286H49.6208V3.78571H48.9779V3.14286ZM48.9779 5.71429H49.6208V6.35714H48.9779V5.71429ZM48.3351 5.71429H48.9779V6.35714H48.3351V5.71429ZM48.3351 3.14286H48.9779V3.78571H48.3351V3.14286ZM47.6922 5.71429H48.3351V6.35714H47.6922V5.71429ZM48.3351 6.35714H48.9779V7H48.3351V6.35714ZM47.6922 6.35714H48.3351V7H47.6922V6.35714ZM47.0494 6.35714H47.6922V7H47.0494V6.35714ZM46.4065 6.35714H47.0494V7H46.4065V6.35714ZM45.7636 6.35714H46.4065V7H45.7636V6.35714ZM45.7636 5.71429H46.4065V6.35714H45.7636V5.71429ZM46.4065 5.71429H47.0494V6.35714H46.4065V5.71429ZM45.7636 5.07143H46.4065V5.71429H45.7636V5.07143ZM45.1208 5.71429H45.7636V6.35714H45.1208V5.71429ZM45.1208 5.07143H45.7636V5.71429H45.1208V5.07143ZM45.1208 4.42857H45.7636V5.07143H45.1208V4.42857ZM45.1208 3.78571H45.7636V4.42857H45.1208V3.78571ZM45.1208 3.14286H45.7636V3.78571H45.1208V3.14286ZM45.1208 2.5H45.7636V3.14286H45.1208V2.5ZM45.7636 3.14286H46.4065V3.78571H45.7636V3.14286ZM45.7636 3.78571H46.4065V4.42857H45.7636V3.78571ZM45.7636 4.42857H46.4065V5.07143H45.7636V4.42857ZM47.0494 5.71429H47.6922V6.35714H47.0494V5.71429ZM47.0494 2.5H47.6922V3.14286H47.0494V2.5ZM48.3351 3.78571H48.9779V4.42857H48.3351V3.78571ZM48.9779 3.78571H49.6208V4.42857H48.9779V3.78571ZM46.4065 4.42857H47.0494V5.07143H46.4065V4.42857ZM47.0494 4.42857H47.6922V5.07143H47.0494V4.42857ZM47.6922 4.42857H48.3351V5.07143H47.6922V4.42857ZM48.3351 4.42857H48.9779V5.07143H48.3351V4.42857ZM48.9779 4.42857H49.6208V5.07143H48.9779V4.42857ZM47.6922 3.78571H48.3351V4.42857H47.6922V3.78571ZM47.0494 3.78571H47.6922V4.42857H47.0494V3.78571ZM46.4065 3.78571H47.0494V4.42857H46.4065V3.78571ZM54.5253 2.5V3.14286H53.8825V2.5H54.5253ZM54.5253 1.85714V2.5H53.8825V1.85714H54.5253ZM53.8825 1.85714V2.5H53.2396V1.85714H53.8825ZM53.8825 2.5V3.14286H53.2396V2.5H53.8825ZM53.8825 3.14286V3.78571H53.2396V3.14286H53.8825ZM53.8825 3.78571V4.42857H53.2396V3.78571H53.8825ZM53.8825 4.42857V5.07143H53.2396V4.42857H53.8825ZM54.5253 4.42857V5.07143H53.8825V4.42857H54.5253ZM54.5253 3.78571V4.42857H53.8825V3.78571H54.5253ZM54.5253 3.14286V3.78571H53.8825V3.14286H54.5253ZM54.5253 5.07143V5.71429H53.8825V5.07143H54.5253ZM53.8825 5.07143V5.71429H53.2396V5.07143H53.8825ZM53.8825 5.71429V6.35714H53.2396V5.71429H53.8825ZM53.8825 6.35714V7H53.2396V6.35714H53.8825ZM54.5253 6.35714V7H53.8825V6.35714H54.5253ZM54.5253 5.71429V6.35714H53.8825V5.71429H54.5253ZM51.311 6.35714V7H50.6682V6.35714H51.311ZM50.6682 5.71429V6.35714H50.0253V5.71429H50.6682ZM50.6682 5.07143V5.71429H50.0253V5.07143H50.6682ZM50.6682 4.42857V5.07143H50.0253V4.42857H50.6682ZM50.6682 3.78571V4.42857H50.0253V3.78571H50.6682ZM50.6682 3.14286V3.78571H50.0253V3.14286H50.6682ZM50.6682 2.5V3.14286H50.0253V2.5H50.6682ZM51.311 3.78571V4.42857H50.6682V3.78571H51.311ZM51.311 4.42857V5.07143H50.6682V4.42857H51.311ZM51.311 5.07143V5.71429H50.6682V5.07143H51.311ZM51.311 5.71429V6.35714H50.6682V5.71429H51.311ZM51.311 3.14286V3.78571H50.6682V3.14286H51.311ZM51.9539 2.5V3.14286H51.311V2.5H51.9539ZM51.9539 1.85714V2.5H51.311V1.85714H51.9539ZM51.311 1.85714V2.5H50.6682V1.85714H51.311ZM51.311 2.5V3.14286H50.6682V2.5H51.311ZM52.5967 1.85714V2.5H51.9539V1.85714H52.5967ZM54.5253 0.571429V1.21429H53.8825V0.571429H54.5253ZM53.8825 0.571429V1.21429H53.2396V0.571429H53.8825ZM53.8825 1.21429V1.85714H53.2396V1.21429H53.8825ZM54.5253 1.21429V1.85714H53.8825V1.21429H54.5253ZM52.5967 6.35714V7H51.9539V6.35714H52.5967ZM51.9539 6.35714V7H51.311V6.35714H51.9539ZM51.9539 5.71429V6.35714H51.311V5.71429H51.9539ZM52.5967 5.71429V6.35714H51.9539V5.71429H52.5967ZM53.2396 5.71429V6.35714H52.5967V5.71429H53.2396ZM53.2396 1.85714V2.5H52.5967V1.85714H53.2396ZM53.2396 2.5V3.14286H52.5967V2.5H53.2396ZM52.5967 2.5V3.14286H51.9539V2.5H52.5967ZM57.2562 6.35714H57.8991V7H57.2562V6.35714ZM57.8991 6.35714H58.542V7H57.8991V6.35714ZM57.8991 5.71429H58.542V6.35714H57.8991V5.71429ZM57.8991 5.07143H58.542V5.71429H57.8991V5.07143ZM57.8991 4.42857H58.542V5.07143H57.8991V4.42857ZM57.8991 3.78571H58.542V4.42857H57.8991V3.78571ZM57.8991 3.14286H58.542V3.78571H57.8991V3.14286ZM57.2562 3.14286H57.8991V3.78571H57.2562V3.14286ZM57.2562 3.78571H57.8991V4.42857H57.2562V3.78571ZM57.2562 4.42857H57.8991V5.07143H57.2562V4.42857ZM57.2562 5.07143H57.8991V5.71429H57.2562V5.07143ZM57.2562 5.71429H57.8991V6.35714H57.2562V5.71429ZM57.2562 2.5H57.8991V3.14286H57.2562V2.5ZM57.8991 2.5H58.542V3.14286H57.8991V2.5ZM57.8991 1.85714H58.542V2.5H57.8991V1.85714ZM57.8991 1.21429H58.542V1.85714H57.8991V1.21429ZM57.8991 0.571429H58.542V1.21429H57.8991V0.571429ZM57.2562 0.571429H57.8991V1.21429H57.2562V0.571429ZM57.2562 1.21429H57.8991V1.85714H57.2562V1.21429ZM57.2562 1.85714H57.8991V2.5H57.2562V1.85714ZM58.9498 2.5H59.5927V3.14286H58.9498V2.5ZM58.9498 1.85714H59.5927V2.5H58.9498V1.85714ZM59.5927 1.85714H60.2356V2.5H59.5927V1.85714ZM59.5927 2.5H60.2356V3.14286H59.5927V2.5ZM59.5927 3.14286H60.2356V3.78571H59.5927V3.14286ZM59.5927 3.78571H60.2356V4.42857H59.5927V3.78571ZM59.5927 4.42857H60.2356V5.07143H59.5927V4.42857ZM58.9498 4.42857H59.5927V5.07143H58.9498V4.42857ZM58.9498 3.78571H59.5927V4.42857H58.9498V3.78571ZM58.9498 3.14286H59.5927V3.78571H58.9498V3.14286ZM58.9498 5.07143H59.5927V5.71429H58.9498V5.07143ZM59.5927 5.07143H60.2356V5.71429H59.5927V5.07143ZM59.5927 5.71429H60.2356V6.35714H59.5927V5.71429ZM59.5927 6.35714H60.2356V7H59.5927V6.35714ZM58.9498 6.35714H59.5927V7H58.9498V6.35714ZM58.9498 5.71429H59.5927V6.35714H58.9498V5.71429ZM62.1641 6.35714H62.807V7H62.1641V6.35714ZM62.807 6.35714H63.4498V7H62.807V6.35714ZM62.807 5.71429H63.4498V6.35714H62.807V5.71429ZM62.807 5.07143H63.4498V5.71429H62.807V5.07143ZM62.807 4.42857H63.4498V5.07143H62.807V4.42857ZM62.807 3.78571H63.4498V4.42857H62.807V3.78571ZM62.807 3.14286H63.4498V3.78571H62.807V3.14286ZM62.807 2.5H63.4498V3.14286H62.807V2.5ZM62.1641 3.78571H62.807V4.42857H62.1641V3.78571ZM62.1641 4.42857H62.807V5.07143H62.1641V4.42857ZM62.1641 5.07143H62.807V5.71429H62.1641V5.07143ZM62.1641 5.71429H62.807V6.35714H62.1641V5.71429ZM62.1641 3.14286H62.807V3.78571H62.1641V3.14286ZM60.2356 2.5H60.8784V3.14286H60.2356V2.5ZM60.8784 2.5H61.5213V3.14286H60.8784V2.5ZM61.5213 2.5H62.1641V3.14286H61.5213V2.5ZM61.5213 1.85714H62.1641V2.5H61.5213V1.85714ZM62.1641 1.85714H62.807V2.5H62.1641V1.85714ZM62.1641 2.5H62.807V3.14286H62.1641V2.5ZM60.8784 1.85714H61.5213V2.5H60.8784V1.85714Z"/>
<path d="M15.2857 8.57143H15.9286V9.21429H15.2857V8.57143ZM14.6429 8.57143H15.2857V9.21429H14.6429V8.57143ZM14.6429 9.21429H15.2857V9.85714H14.6429V9.21429ZM15.2857 9.21429H15.9286V9.85714H15.2857V9.21429ZM15.9286 9.21429H16.5714V9.85714H15.9286V9.21429ZM15.9286 8.57143H16.5714V9.21429H15.9286V8.57143ZM16.5714 8.57143H17.2143V9.21429H16.5714V8.57143ZM17.2143 8.57143H17.8571V9.21429H17.2143V8.57143ZM17.2143 9.21429H17.8571V9.85714H17.2143V9.21429ZM16.5714 9.21429H17.2143V9.85714H16.5714V9.21429ZM17.2143 9.85714H17.8571V10.5H17.2143V9.85714ZM17.8571 9.21429H18.5V9.85714H17.8571V9.21429ZM17.8571 9.85714H18.5V10.5H17.8571V9.85714ZM17.8571 13.0714H18.5V13.7143H17.8571V13.0714ZM17.8571 13.7143H18.5V14.3571H17.8571V13.7143ZM17.2143 13.7143H17.8571V14.3571H17.2143V13.7143ZM17.2143 13.0714H17.8571V13.7143H17.2143V13.0714ZM16.5714 13.7143H17.2143V14.3571H16.5714V13.7143ZM17.2143 14.3571H17.8571V15H17.2143V14.3571ZM16.5714 14.3571H17.2143V15H16.5714V14.3571ZM15.9286 14.3571H16.5714V15H15.9286V14.3571ZM15.9286 13.7143H16.5714V14.3571H15.9286V13.7143ZM15.2857 14.3571H15.9286V15H15.2857V14.3571ZM14.6429 14.3571H15.2857V15H14.6429V14.3571ZM14.6429 13.7143H15.2857V14.3571H14.6429V13.7143ZM15.2857 13.7143H15.9286V14.3571H15.2857V13.7143ZM15.2857 13.0714H15.9286V13.7143H15.2857V13.0714ZM14.6429 13.0714H15.2857V13.7143H14.6429V13.0714ZM14 13.7143H14.6429V14.3571H14V13.7143ZM14 13.0714H14.6429V13.7143H14V13.0714ZM14 12.4286H14.6429V13.0714H14V12.4286ZM14 11.7857H14.6429V12.4286H14V11.7857ZM14 11.1429H14.6429V11.7857H14V11.1429ZM14 10.5H14.6429V11.1429H14V10.5ZM14 9.85714H14.6429V10.5H14V9.85714ZM14.6429 9.85714H15.2857V10.5H14.6429V9.85714ZM14 9.21429H14.6429V9.85714H14V9.21429ZM15.2857 9.85714H15.9286V10.5H15.2857V9.85714ZM14.6429 10.5H15.2857V11.1429H14.6429V10.5ZM14.6429 11.1429H15.2857V11.7857H14.6429V11.1429ZM14.6429 11.7857H15.2857V12.4286H14.6429V11.7857ZM14.6429 12.4286H15.2857V13.0714H14.6429V12.4286ZM22.7617 15H22.1188V14.3571H22.7617V15ZM22.7617 14.3571H22.1188V13.7143H22.7617V14.3571ZM22.1188 14.3571H21.476V13.7143H22.1188V14.3571ZM21.476 15H20.8331V14.3571H21.476V15ZM20.8331 15H20.1902V14.3571H20.8331V15ZM20.1902 15H19.5474V14.3571H20.1902V15ZM20.1902 14.3571H19.5474V13.7143H20.1902V14.3571ZM20.8331 14.3571H20.1902V13.7143H20.8331V14.3571ZM19.5474 14.3571H18.9045V13.7143H19.5474V14.3571ZM19.5474 13.7143H18.9045V13.0714H19.5474V13.7143ZM19.5474 11.1429H18.9045V10.5H19.5474V11.1429ZM20.1902 11.1429H19.5474V10.5H20.1902V11.1429ZM20.1902 13.7143H19.5474V13.0714H20.1902V13.7143ZM20.8331 11.1429H20.1902V10.5H20.8331V11.1429ZM20.1902 10.5H19.5474V9.85714H20.1902V10.5ZM20.8331 10.5H20.1902V9.85714H20.8331V10.5ZM21.476 10.5H20.8331V9.85714H21.476V10.5ZM22.1188 10.5H21.476V9.85714H22.1188V10.5ZM22.7617 10.5H22.1188V9.85714H22.7617V10.5ZM22.7617 11.1429H22.1188V10.5H22.7617V11.1429ZM22.1188 11.1429H21.476V10.5H22.1188V11.1429ZM22.7617 11.7857H22.1188V11.1429H22.7617V11.7857ZM23.4045 11.1429H22.7617V10.5H23.4045V11.1429ZM23.4045 11.7857H22.7617V11.1429H23.4045V11.7857ZM23.4045 12.4286H22.7617V11.7857H23.4045V12.4286ZM23.4045 13.0714H22.7617V12.4286H23.4045V13.0714ZM23.4045 13.7143H22.7617V13.0714H23.4045V13.7143ZM23.4045 14.3571H22.7617V13.7143H23.4045V14.3571ZM22.7617 13.7143H22.1188V13.0714H22.7617V13.7143ZM22.7617 13.0714H22.1188V12.4286H22.7617V13.0714ZM22.7617 12.4286H22.1188V11.7857H22.7617V12.4286ZM21.476 11.1429H20.8331V10.5H21.476V11.1429ZM21.476 14.3571H20.8331V13.7143H21.476V14.3571ZM22.7617 14.3571H23.4045V15H22.7617V14.3571ZM21.476 11.7857H22.1188V12.4286H21.476V11.7857ZM20.8331 11.7857H21.476V12.4286H20.8331V11.7857ZM20.1902 11.7857H20.8331V12.4286H20.1902V11.7857ZM19.5474 11.7857H20.1902V12.4286H19.5474V11.7857ZM18.9045 12.4286H19.5474V13.0714H18.9045V12.4286ZM19.5474 12.4286H20.1902V13.0714H19.5474V12.4286ZM21.476 12.4286H22.1188V13.0714H21.476V12.4286ZM20.8331 12.4286H21.476V13.0714H20.8331V12.4286ZM20.1902 12.4286H20.8331V13.0714H20.1902V12.4286ZM23.8091 10.5H24.4519V11.1429H23.8091V10.5ZM23.8091 9.85714H24.4519V10.5H23.8091V9.85714ZM24.4519 9.85714H25.0948V10.5H24.4519V9.85714ZM24.4519 10.5H25.0948V11.1429H24.4519V10.5ZM24.4519 11.1429H25.0948V11.7857H24.4519V11.1429ZM24.4519 11.7857H25.0948V12.4286H24.4519V11.7857ZM24.4519 12.4286H25.0948V13.0714H24.4519V12.4286ZM23.8091 12.4286H24.4519V13.0714H23.8091V12.4286ZM23.8091 11.7857H24.4519V12.4286H23.8091V11.7857ZM23.8091 11.1429H24.4519V11.7857H23.8091V11.1429ZM23.8091 13.0714H24.4519V13.7143H23.8091V13.0714ZM24.4519 13.0714H25.0948V13.7143H24.4519V13.0714ZM24.4519 13.7143H25.0948V14.3571H24.4519V13.7143ZM24.4519 14.3571H25.0948V15H24.4519V14.3571ZM23.8091 14.3571H24.4519V15H23.8091V14.3571ZM23.8091 13.7143H24.4519V14.3571H23.8091V13.7143ZM27.0233 14.3571H27.6662V15H27.0233V14.3571ZM27.6662 14.3571H28.3091V15H27.6662V14.3571ZM27.6662 13.7143H28.3091V14.3571H27.6662V13.7143ZM27.6662 13.0714H28.3091V13.7143H27.6662V13.0714ZM27.6662 12.4286H28.3091V13.0714H27.6662V12.4286ZM27.6662 11.7857H28.3091V12.4286H27.6662V11.7857ZM27.6662 11.1429H28.3091V11.7857H27.6662V11.1429ZM27.6662 10.5H28.3091V11.1429H27.6662V10.5ZM27.0233 11.7857H27.6662V12.4286H27.0233V11.7857ZM27.0233 12.4286H27.6662V13.0714H27.0233V12.4286ZM27.0233 13.0714H27.6662V13.7143H27.0233V13.0714ZM27.0233 13.7143H27.6662V14.3571H27.0233V13.7143ZM27.0233 11.1429H27.6662V11.7857H27.0233V11.1429ZM25.0948 10.5H25.7376V11.1429H25.0948V10.5ZM25.7376 10.5H26.3805V11.1429H25.7376V10.5ZM26.3805 10.5H27.0233V11.1429H26.3805V10.5ZM26.3805 9.85714H27.0233V10.5H26.3805V9.85714ZM27.0233 9.85714H27.6662V10.5H27.0233V9.85714ZM27.0233 10.5H27.6662V11.1429H27.0233V10.5ZM25.7376 9.85714H26.3805V10.5H25.7376V9.85714ZM32.5707 15H31.9279V14.3571H32.5707V15ZM32.5707 14.3571H31.9279V13.7143H32.5707V14.3571ZM31.9279 14.3571H31.285V13.7143H31.9279V14.3571ZM31.285 15H30.6422V14.3571H31.285V15ZM30.6422 15H29.9993V14.3571H30.6422V15ZM29.9993 15H29.3565V14.3571H29.9993V15ZM29.9993 14.3571H29.3565V13.7143H29.9993V14.3571ZM30.6422 14.3571H29.9993V13.7143H30.6422V14.3571ZM29.3565 14.3571H28.7136V13.7143H29.3565V14.3571ZM29.3565 13.7143H28.7136V13.0714H29.3565V13.7143ZM29.3565 11.1429H28.7136V10.5H29.3565V11.1429ZM29.9993 11.1429H29.3565V10.5H29.9993V11.1429ZM29.9993 13.7143H29.3565V13.0714H29.9993V13.7143ZM30.6422 11.1429H29.9993V10.5H30.6422V11.1429ZM29.9993 10.5H29.3565V9.85714H29.9993V10.5ZM30.6422 10.5H29.9993V9.85714H30.6422V10.5ZM31.285 10.5H30.6422V9.85714H31.285V10.5ZM31.9279 10.5H31.285V9.85714H31.9279V10.5ZM32.5707 10.5H31.9279V9.85714H32.5707V10.5ZM32.5707 11.1429H31.9279V10.5H32.5707V11.1429ZM31.9279 11.1429H31.285V10.5H31.9279V11.1429ZM32.5707 11.7857H31.9279V11.1429H32.5707V11.7857ZM33.2136 11.1429H32.5707V10.5H33.2136V11.1429ZM33.2136 11.7857H32.5707V11.1429H33.2136V11.7857ZM33.2136 12.4286H32.5707V11.7857H33.2136V12.4286ZM33.2136 13.0714H32.5707V12.4286H33.2136V13.0714ZM33.2136 13.7143H32.5707V13.0714H33.2136V13.7143ZM33.2136 14.3571H32.5707V13.7143H33.2136V14.3571ZM32.5707 13.7143H31.9279V13.0714H32.5707V13.7143ZM32.5707 13.0714H31.9279V12.4286H32.5707V13.0714ZM32.5707 12.4286H31.9279V11.7857H32.5707V12.4286ZM31.285 11.1429H30.6422V10.5H31.285V11.1429ZM31.285 14.3571H30.6422V13.7143H31.285V14.3571ZM32.5707 14.3571H33.2136V15H32.5707V14.3571ZM31.285 11.7857H31.9279V12.4286H31.285V11.7857ZM30.6422 11.7857H31.285V12.4286H30.6422V11.7857ZM29.9993 11.7857H30.6422V12.4286H29.9993V11.7857ZM29.3565 11.7857H29.9993V12.4286H29.3565V11.7857ZM28.7136 12.4286H29.3565V13.0714H28.7136V12.4286ZM29.3565 12.4286H29.9993V13.0714H29.3565V12.4286ZM31.285 12.4286H31.9279V13.0714H31.285V12.4286ZM30.6422 12.4286H31.285V13.0714H30.6422V12.4286ZM29.9993 12.4286H30.6422V13.0714H29.9993V12.4286ZM38.1181 10.5V11.1429H37.4753V10.5H38.1181ZM38.1181 9.85714V10.5H37.4753V9.85714H38.1181ZM37.4753 9.85714V10.5H36.8324V9.85714H37.4753ZM37.4753 10.5V11.1429H36.8324V10.5H37.4753ZM37.4753 11.1429V11.7857H36.8324V11.1429H37.4753ZM37.4753 11.7857V12.4286H36.8324V11.7857H37.4753ZM37.4753 12.4286V13.0714H36.8324V12.4286H37.4753ZM38.1181 12.4286V13.0714H37.4753V12.4286H38.1181ZM38.1181 11.7857V12.4286H37.4753V11.7857H38.1181ZM38.1181 11.1429V11.7857H37.4753V11.1429H38.1181ZM38.1181 13.0714V13.7143H37.4753V13.0714H38.1181ZM37.4753 13.0714V13.7143H36.8324V13.0714H37.4753ZM37.4753 13.7143V14.3571H36.8324V13.7143H37.4753ZM37.4753 14.3571V15H36.8324V14.3571H37.4753ZM38.1181 14.3571V15H37.4753V14.3571H38.1181ZM38.1181 13.7143V14.3571H37.4753V13.7143H38.1181ZM34.9038 14.3571V15H34.261V14.3571H34.9038ZM34.261 13.7143V14.3571H33.6181V13.7143H34.261ZM34.261 13.0714V13.7143H33.6181V13.0714H34.261ZM34.261 12.4286V13.0714H33.6181V12.4286H34.261ZM34.261 11.7857V12.4286H33.6181V11.7857H34.261ZM34.261 11.1429V11.7857H33.6181V11.1429H34.261ZM34.261 10.5V11.1429H33.6181V10.5H34.261ZM34.9038 11.7857V12.4286H34.261V11.7857H34.9038ZM34.9038 12.4286V13.0714H34.261V12.4286H34.9038ZM34.9038 13.0714V13.7143H34.261V13.0714H34.9038ZM34.9038 13.7143V14.3571H34.261V13.7143H34.9038ZM34.9038 11.1429V11.7857H34.261V11.1429H34.9038ZM35.5467 10.5V11.1429H34.9038V10.5H35.5467ZM35.5467 9.85714V10.5H34.9038V9.85714H35.5467ZM34.9038 9.85714V10.5H34.261V9.85714H34.9038ZM34.9038 10.5V11.1429H34.261V10.5H34.9038ZM36.1896 9.85714V10.5H35.5467V9.85714H36.1896ZM38.1181 8.57143V9.21429H37.4753V8.57143H38.1181ZM37.4753 8.57143V9.21429H36.8324V8.57143H37.4753ZM37.4753 9.21429V9.85714H36.8324V9.21429H37.4753ZM38.1181 9.21429V9.85714H37.4753V9.21429H38.1181ZM36.1896 14.3571V15H35.5467V14.3571H36.1896ZM35.5467 14.3571V15H34.9038V14.3571H35.5467ZM35.5467 13.7143V14.3571H34.9038V13.7143H35.5467ZM36.1896 13.7143V14.3571H35.5467V13.7143H36.1896ZM36.8324 13.7143V14.3571H36.1896V13.7143H36.8324ZM36.8324 9.85714V10.5H36.1896V9.85714H36.8324ZM36.8324 10.5V11.1429H36.1896V10.5H36.8324ZM36.1896 10.5V11.1429H35.5467V10.5H36.1896ZM42.3798 15H41.7369V14.3571H42.3798V15ZM42.3798 14.3571H41.7369V13.7143H42.3798V14.3571ZM41.7369 14.3571H41.0941V13.7143H41.7369V14.3571ZM41.0941 15H40.4512V14.3571H41.0941V15ZM40.4512 15H39.8084V14.3571H40.4512V15ZM39.8084 15H39.1655V14.3571H39.8084V15ZM39.8084 14.3571H39.1655V13.7143H39.8084V14.3571ZM40.4512 14.3571H39.8084V13.7143H40.4512V14.3571ZM39.1655 14.3571H38.5227V13.7143H39.1655V14.3571ZM39.1655 13.7143H38.5227V13.0714H39.1655V13.7143ZM39.1655 11.1429H38.5227V10.5H39.1655V11.1429ZM39.8084 11.1429H39.1655V10.5H39.8084V11.1429ZM39.8084 13.7143H39.1655V13.0714H39.8084V13.7143ZM40.4512 11.1429H39.8084V10.5H40.4512V11.1429ZM39.8084 10.5H39.1655V9.85714H39.8084V10.5ZM40.4512 10.5H39.8084V9.85714H40.4512V10.5ZM41.0941 10.5H40.4512V9.85714H41.0941V10.5ZM41.7369 10.5H41.0941V9.85714H41.7369V10.5ZM42.3798 10.5H41.7369V9.85714H42.3798V10.5ZM42.3798 11.1429H41.7369V10.5H42.3798V11.1429ZM41.7369 11.1429H41.0941V10.5H41.7369V11.1429ZM42.3798 11.7857H41.7369V11.1429H42.3798V11.7857ZM43.0227 11.1429H42.3798V10.5H43.0227V11.1429ZM43.0227 11.7857H42.3798V11.1429H43.0227V11.7857ZM43.0227 12.4286H42.3798V11.7857H43.0227V12.4286ZM43.0227 13.0714H42.3798V12.4286H43.0227V13.0714ZM43.0227 13.7143H42.3798V13.0714H43.0227V13.7143ZM43.0227 14.3571H42.3798V13.7143H43.0227V14.3571ZM42.3798 13.7143H41.7369V13.0714H42.3798V13.7143ZM42.3798 13.0714H41.7369V12.4286H42.3798V13.0714ZM42.3798 12.4286H41.7369V11.7857H42.3798V12.4286ZM41.0941 11.1429H40.4512V10.5H41.0941V11.1429ZM41.0941 14.3571H40.4512V13.7143H41.0941V14.3571ZM42.3798 14.3571H43.0227V15H42.3798V14.3571ZM41.0941 11.7857H41.7369V12.4286H41.0941V11.7857ZM40.4512 11.7857H41.0941V12.4286H40.4512V11.7857ZM39.8084 11.7857H40.4512V12.4286H39.8084V11.7857ZM39.1655 11.7857H39.8084V12.4286H39.1655V11.7857ZM38.5227 12.4286H39.1655V13.0714H38.5227V12.4286ZM39.1655 12.4286H39.8084V13.0714H39.1655V12.4286ZM41.0941 12.4286H41.7369V13.0714H41.0941V12.4286ZM40.4512 12.4286H41.0941V13.0714H40.4512V12.4286ZM39.8084 12.4286H40.4512V13.0714H39.8084V12.4286ZM43.4272 13.7143H44.07V14.3571H43.4272V13.7143ZM44.07 13.7143H44.7129V14.3571H44.07V13.7143ZM44.07 14.3571H44.7129V15H44.07V14.3571ZM43.4272 14.3571H44.07V15H43.4272V14.3571ZM43.4272 8.57143H44.07V9.21429H43.4272V8.57143ZM44.07 8.57143H44.7129V9.21429H44.07V8.57143ZM44.07 9.21429H44.7129V9.85714H44.07V9.21429ZM44.07 9.85714H44.7129V10.5H44.07V9.85714ZM44.07 10.5H44.7129V11.1429H44.07V10.5ZM44.07 11.1429H44.7129V11.7857H44.07V11.1429ZM44.07 11.7857H44.7129V12.4286H44.07V11.7857ZM43.4272 11.7857H44.07V12.4286H43.4272V11.7857ZM43.4272 11.1429H44.07V11.7857H43.4272V11.1429ZM43.4272 10.5H44.07V11.1429H43.4272V10.5ZM43.4272 9.85714H44.07V10.5H43.4272V9.85714ZM43.4272 9.21429H44.07V9.85714H43.4272V9.21429ZM43.4272 12.4286H44.07V13.0714H43.4272V12.4286ZM44.07 12.4286H44.7129V13.0714H44.07V12.4286Z"/>
<g clip-path="url(#clip0_602_5)">
<path d="M5.73201 14L5.86601 11.4303C5.86795 11.388 5.8604 11.3459 5.8439 11.3069C5.82739 11.2679 5.80236 11.2332 5.77065 11.2052C5.73894 11.1772 5.70135 11.1567 5.66065 11.1451C5.61995 11.1336 5.57718 11.1313 5.53549 11.1385L2.97767 11.5881L3.32308 10.6352C3.33709 10.5973 3.33889 10.556 3.3282 10.517C3.31752 10.478 3.29491 10.4433 3.26353 10.4179L0.46154 8.14888L1.09281 7.85409C1.13544 7.83395 1.16925 7.79893 1.18789 7.75561C1.20654 7.7123 1.20872 7.66367 1.19405 7.61886L0.6402 5.91563L2.2541 6.25806C2.29782 6.26718 2.34335 6.26089 2.38297 6.24027C2.42259 6.21965 2.45385 6.18596 2.47147 6.14491L2.78412 5.40943L4.04367 6.76129C4.07247 6.79167 4.11035 6.81189 4.15161 6.81892C4.19288 6.82596 4.23531 6.81942 4.27255 6.8003C4.30978 6.78118 4.33982 6.7505 4.35814 6.71287C4.37647 6.67523 4.3821 6.63267 4.37419 6.59156L3.76675 3.45906L4.74045 4.02184C4.76331 4.03523 4.78868 4.0438 4.81498 4.04699C4.84129 4.05019 4.86797 4.04794 4.89337 4.04041C4.91877 4.03287 4.94236 4.0202 4.96266 4.00317C4.98297 3.98615 4.99956 3.96514 5.01142 3.94144L6 2L6.98859 3.94144C7.00044 3.96514 7.01703 3.98615 7.03734 4.00317C7.05765 4.0202 7.08123 4.03287 7.10663 4.04041C7.13204 4.04794 7.15872 4.05019 7.18502 4.04699C7.21133 4.0438 7.23669 4.03523 7.25955 4.02184L8.23325 3.45906L7.62581 6.59156C7.6179 6.63267 7.62353 6.67523 7.64186 6.71287C7.66019 6.7505 7.69022 6.78118 7.72746 6.8003C7.76469 6.81942 7.80713 6.82596 7.84839 6.81892C7.88966 6.81189 7.92753 6.79167 7.95633 6.76129L9.21588 5.40943L9.52854 6.14491C9.54615 6.18596 9.57742 6.21965 9.61703 6.24027C9.65665 6.26089 9.70218 6.26718 9.74591 6.25806L11.3598 5.91563L10.806 7.61886C10.7913 7.66367 10.7935 7.7123 10.8121 7.75561C10.8307 7.79893 10.8646 7.83395 10.9072 7.85409L11.5385 8.14888L8.73648 10.4179C8.7051 10.4433 8.68248 10.478 8.6718 10.517C8.66112 10.556 8.66291 10.5973 8.67692 10.6352L9.02233 11.5881L6.46452 11.1385C6.42282 11.1313 6.38005 11.1336 6.33936 11.1451C6.29866 11.1567 6.26107 11.1772 6.22935 11.2052C6.19764 11.2332 6.17261 11.2679 6.15611 11.3069C6.1396 11.3459 6.13205 11.388 6.134 11.4303L6.26799 14H5.73201Z" />
</g>
<defs>
<clipPath id="clip0_602_5">
<rect width="12" height="12"  transform="translate(0 2)"/>
</clipPath>
</defs>
</svg>
